<svg width="22" height="20" viewBox="0 0 22 20" fill="none" xmlns="http://www.w3.org/2000/svg">
<path d="M18.8762 0C19.502 0 20.1022 0.225617 20.5447 0.627218C20.9872 1.02882 21.2358 1.57351 21.2358 2.14146V17.1316C21.2358 17.6996 20.9872 18.2443 20.5447 18.6459C20.1022 19.0475 19.502 19.2731 18.8762 19.2731H2.35953C1.73374 19.2731 1.13359 19.0475 0.69109 18.6459C0.248592 18.2443 0 17.6996 0 17.1316V2.14146C0 1.57351 0.248592 1.02882 0.69109 0.627218C1.13359 0.225617 1.73374 0 2.35953 0H18.8762ZM18.2863 16.5963V10.9214C18.2863 9.99567 17.8811 9.10783 17.1599 8.45322C16.4386 7.79861 15.4603 7.43085 14.4403 7.43085C13.4375 7.43085 12.2695 7.98763 11.7033 8.8228V7.63429H8.41172V16.5963H11.7033V11.3176C11.7033 10.4931 12.4347 9.81857 13.3431 9.81857C13.7812 9.81857 14.2013 9.97651 14.511 10.2576C14.8208 10.5387 14.9948 10.92 14.9948 11.3176V16.5963H18.2863ZM4.57749 5.95325C5.10315 5.95325 5.60728 5.76373 5.97897 5.42638C6.35067 5.08904 6.55949 4.6315 6.55949 4.15442C6.55949 3.15865 5.67467 2.34489 4.57749 2.34489C4.0487 2.34489 3.54156 2.53554 3.16765 2.87489C2.79374 3.21425 2.58368 3.67451 2.58368 4.15442C2.58368 5.1502 3.4803 5.95325 4.57749 5.95325ZM6.21736 16.5963V7.63429H2.94941V16.5963H6.21736Z" fill="white"/>
</svg>
